<?xml version="1.0" encoding="utf-8"?>
<!-- Generator: Adobe Illustrator 22.1.0, SVG Export Plug-In . SVG Version: 6.00 Build 0)  -->
<!DOCTYPE svg PUBLIC "-//W3C//DTD SVG 1.1//EN" "http://www.w3.org/Graphics/SVG/1.1/DTD/svg11.dtd" [
	<!ENTITY st0 "fill:#0000FF;">
	<!ENTITY st1 "fill:#2E8CFF;">
	<!ENTITY st2 "fill:#FFDF35;">
	<!ENTITY st3 "fill:#D3D3D3;">
]>
<svg version="1.1" id="Layer_1" xmlns="http://www.w3.org/2000/svg" xmlns:xlink="http://www.w3.org/1999/xlink" x="0px" y="0px"
	 viewBox="0 0 500 500" style="enable-background:new 0 0 500 500;" xml:space="preserve">
<rect x="382.4" y="306.3" style="&st0;" width="9.8" height="9.8"/>
<rect x="382.4" y="296.5" style="&st0;" width="9.8" height="9.8"/>
<rect x="372.5" y="316.1" style="&st0;" width="9.8" height="9.8"/>
<rect x="372.5" y="306.3" style="&st1;" width="9.8" height="9.8"/>
<rect x="372.5" y="296.5" style="&st1;" width="9.8" height="9.8"/>
<rect x="372.5" y="286.7" style="&st0;" width="9.8" height="9.8"/>
<rect x="362.8" y="316.1" style="&st0;" width="9.8" height="9.8"/>
<rect x="362.8" y="306.3" style="&st1;" width="9.8" height="9.8"/>
<rect x="362.8" y="296.5" style="&st1;" width="9.8" height="9.8"/>
<rect x="362.8" y="286.7" style="&st0;" width="9.8" height="9.8"/>
<rect x="353" y="316.1" style="&st2;" width="9.8" height="9.8"/>
<rect x="353" y="306.3" style="&st0;" width="9.8" height="9.8"/>
<rect x="353" y="296.5" style="&st0;" width="9.8" height="9.8"/>
<rect x="343.1" y="316.1" style="&st2;" width="9.8" height="9.8"/>
<rect x="343.1" y="306.3" style="&st2;" width="9.8" height="9.8"/>
<rect x="333.3" y="316.1" style="&st2;" width="9.8" height="9.8"/>
<rect x="333.3" y="306.3" style="&st2;" width="9.8" height="9.8"/>
<rect x="323.5" y="316.1" style="&st2;" width="9.8" height="9.8"/>
<rect x="323.5" y="306.3" style="&st2;" width="9.8" height="9.8"/>
<rect x="313.7" y="325.9" style="&st2;" width="9.8" height="9.8"/>
<rect x="313.7" y="316.1" style="&st2;" width="9.8" height="9.8"/>
<rect x="313.7" y="306.3" style="&st2;" width="9.8" height="9.8"/>
<rect x="303.9" y="335.7" style="&st2;" width="9.8" height="9.8"/>
<rect x="303.9" y="325.9" style="&st2;" width="9.8" height="9.8"/>
<rect x="303.9" y="316.1" style="&st2;" width="9.8" height="9.8"/>
<rect x="303.9" y="306.3" style="&st2;" width="9.8" height="9.8"/>
<rect x="294.1" y="345.5" style="&st2;" width="9.8" height="9.8"/>
<rect x="294.1" y="335.7" style="&st2;" width="9.8" height="9.8"/>
<rect x="294.1" y="325.9" style="&st2;" width="9.8" height="9.8"/>
<rect x="294.1" y="316.1" style="&st2;" width="9.8" height="9.8"/>
<rect x="294.1" y="306.3" style="&st3;" width="9.8" height="9.8"/>
<rect x="294.1" y="296.5" style="&st3;" width="9.8" height="9.8"/>
<rect x="294.1" y="286.7" style="&st3;" width="9.8" height="9.8"/>
<rect x="294.1" y="276.9" style="&st3;" width="9.8" height="9.8"/>
<rect x="294.1" y="267.1" style="&st3;" width="9.8" height="9.8"/>
<rect x="294.1" y="257.3" style="&st3;" width="9.8" height="9.8"/>
<rect x="294.1" y="247.5" style="&st3;" width="9.8" height="9.8"/>
<rect x="294.1" y="237.6" style="&st3;" width="9.8" height="9.8"/>
<rect x="294.1" y="227.8" style="&st3;" width="9.8" height="9.8"/>
<rect x="294.1" y="218" style="&st3;" width="9.8" height="9.8"/>
<rect x="294.1" y="208.2" style="&st3;" width="9.8" height="9.8"/>
<rect x="294.1" y="198.4" style="&st3;" width="9.8" height="9.8"/>
<rect x="294.1" y="188.6" style="&st3;" width="9.8" height="9.8"/>
<rect x="294.1" y="178.8" style="&st3;" width="9.8" height="9.8"/>
<rect x="294.1" y="169" style="&st3;" width="9.8" height="9.8"/>
<rect x="294.1" y="159.2" style="&st3;" width="9.8" height="9.8"/>
<rect x="294.1" y="149.4" style="&st3;" width="9.8" height="9.8"/>
<rect x="294.1" y="139.6" style="&st3;" width="9.8" height="9.8"/>
<rect x="294.1" y="129.8" style="&st3;" width="9.8" height="9.8"/>
<rect x="294.1" y="120" style="&st3;" width="9.8" height="9.8"/>
<rect x="294.1" y="110.2" style="&st3;" width="9.8" height="9.8"/>
<rect x="294.1" y="100.4" style="&st3;" width="9.8" height="9.8"/>
<rect x="294.1" y="90.6" style="&st3;" width="9.8" height="9.8"/>
<rect x="294.1" y="80.8" style="&st3;" width="9.8" height="9.8"/>
<rect x="294.1" y="71" style="&st3;" width="9.8" height="9.8"/>
<rect x="294.1" y="61.2" style="&st3;" width="9.8" height="9.8"/>
<rect x="294.1" y="51.4" style="&st3;" width="9.8" height="9.8"/>
<rect x="284.3" y="345.5" style="&st2;" width="9.8" height="9.8"/>
<rect x="284.3" y="335.7" style="&st2;" width="9.8" height="9.8"/>
<rect x="284.3" y="325.9" style="&st2;" width="9.8" height="9.8"/>
<rect x="284.3" y="316.1" style="&st3;" width="9.8" height="9.8"/>
<rect x="284.3" y="306.3" style="&st3;" width="9.8" height="9.8"/>
<rect x="284.3" y="296.5" style="&st3;" width="9.8" height="9.8"/>
<rect x="284.3" y="286.7" style="&st3;" width="9.8" height="9.8"/>
<rect x="284.3" y="276.9" style="&st3;" width="9.8" height="9.8"/>
<rect x="284.3" y="267.1" style="&st3;" width="9.8" height="9.8"/>
<rect x="284.3" y="257.3" style="&st3;" width="9.8" height="9.8"/>
<rect x="284.3" y="247.5" style="&st3;" width="9.8" height="9.8"/>
<rect x="284.3" y="237.6" style="&st3;" width="9.8" height="9.8"/>
<rect x="284.3" y="227.8" style="&st3;" width="9.8" height="9.8"/>
<rect x="284.3" y="218" style="&st3;" width="9.8" height="9.8"/>
<rect x="284.3" y="208.2" style="&st3;" width="9.8" height="9.8"/>
<rect x="284.3" y="198.4" style="&st3;" width="9.8" height="9.8"/>
<rect x="284.3" y="188.6" style="&st3;" width="9.8" height="9.8"/>
<rect x="284.3" y="178.8" style="&st3;" width="9.8" height="9.8"/>
<rect x="284.3" y="169" style="&st3;" width="9.8" height="9.8"/>
<rect x="284.3" y="159.2" style="&st3;" width="9.8" height="9.8"/>
<rect x="284.3" y="149.4" style="&st3;" width="9.8" height="9.8"/>
<rect x="284.3" y="139.6" style="&st3;" width="9.8" height="9.8"/>
<rect x="284.3" y="129.8" style="&st3;" width="9.8" height="9.8"/>
<rect x="284.3" y="120" style="&st3;" width="9.8" height="9.8"/>
<rect x="284.3" y="110.2" style="&st3;" width="9.8" height="9.8"/>
<rect x="284.3" y="100.4" style="&st3;" width="9.8" height="9.8"/>
<rect x="284.3" y="90.6" style="&st3;" width="9.8" height="9.8"/>
<rect x="284.3" y="80.8" style="&st3;" width="9.8" height="9.8"/>
<rect x="284.3" y="71" style="&st3;" width="9.8" height="9.8"/>
<rect x="284.3" y="61.2" style="&st3;" width="9.8" height="9.8"/>
<rect x="284.3" y="51.4" style="&st3;" width="9.8" height="9.8"/>
<rect x="284.3" y="41.6" style="&st3;" width="9.8" height="9.8"/>
<rect x="274.5" y="355.3" style="&st2;" width="9.8" height="9.8"/>
<rect x="274.5" y="345.5" style="&st2;" width="9.8" height="9.8"/>
<rect x="274.5" y="335.7" style="&st2;" width="9.8" height="9.8"/>
<rect x="274.5" y="325.9" style="&st3;" width="9.8" height="9.8"/>
<rect x="274.5" y="316.1" style="&st3;" width="9.8" height="9.8"/>
<rect x="274.5" y="306.3" style="&st3;" width="9.8" height="9.8"/>
<rect x="274.5" y="296.5" style="&st3;" width="9.8" height="9.8"/>
<rect x="274.5" y="286.7" style="&st3;" width="9.8" height="9.8"/>
<rect x="274.5" y="276.9" style="&st3;" width="9.8" height="9.8"/>
<rect x="274.5" y="267.1" style="&st3;" width="9.8" height="9.8"/>
<rect x="274.5" y="257.3" style="&st3;" width="9.8" height="9.8"/>
<rect x="274.5" y="247.5" style="&st3;" width="9.8" height="9.8"/>
<rect x="274.5" y="237.6" style="&st3;" width="9.8" height="9.8"/>
<rect x="274.5" y="227.8" style="&st3;" width="9.8" height="9.8"/>
<rect x="274.5" y="218" style="&st3;" width="9.8" height="9.8"/>
<rect x="274.5" y="208.2" style="&st3;" width="9.8" height="9.8"/>
<rect x="274.5" y="198.4" style="&st3;" width="9.8" height="9.8"/>
<rect x="274.5" y="188.6" style="&st3;" width="9.8" height="9.8"/>
<rect x="274.5" y="178.8" style="&st3;" width="9.8" height="9.8"/>
<rect x="274.5" y="169" style="&st3;" width="9.8" height="9.8"/>
<rect x="274.5" y="159.2" style="&st3;" width="9.8" height="9.8"/>
<rect x="274.5" y="149.4" style="&st3;" width="9.8" height="9.8"/>
<rect x="274.5" y="139.6" style="&st3;" width="9.8" height="9.8"/>
<rect x="274.5" y="129.8" style="&st3;" width="9.8" height="9.8"/>
<rect x="274.5" y="120" style="&st3;" width="9.8" height="9.8"/>
<rect x="274.5" y="110.2" style="&st3;" width="9.8" height="9.8"/>
<rect x="274.5" y="100.4" style="&st3;" width="9.8" height="9.8"/>
<rect x="274.5" y="90.6" style="&st3;" width="9.8" height="9.8"/>
<rect x="274.5" y="80.8" style="&st3;" width="9.8" height="9.8"/>
<rect x="274.5" y="71" style="&st3;" width="9.8" height="9.8"/>
<rect x="274.5" y="61.2" style="&st3;" width="9.8" height="9.8"/>
<rect x="274.5" y="51.4" style="&st3;" width="9.8" height="9.8"/>
<rect x="274.5" y="41.6" style="&st3;" width="9.8" height="9.8"/>
<rect x="274.5" y="31.8" style="&st3;" width="9.8" height="9.8"/>
<rect x="264.7" y="365.1" style="&st2;" width="9.8" height="9.8"/>
<rect x="264.7" y="355.3" style="&st2;" width="9.8" height="9.8"/>
<rect x="264.7" y="345.5" style="&st2;" width="9.8" height="9.8"/>
<rect x="264.7" y="335.7" style="&st2;" width="9.8" height="9.8"/>
<rect x="264.7" y="325.9" style="&st3;" width="9.8" height="9.8"/>
<rect x="264.7" y="316.1" style="&st3;" width="9.8" height="9.8"/>
<rect x="264.7" y="306.3" style="&st3;" width="9.8" height="9.8"/>
<rect x="264.7" y="296.5" style="&st3;" width="9.8" height="9.8"/>
<rect x="264.7" y="286.7" style="&st3;" width="9.8" height="9.8"/>
<rect x="264.7" y="276.9" style="&st3;" width="9.8" height="9.8"/>
<rect x="264.7" y="267.1" style="&st3;" width="9.8" height="9.8"/>
<rect x="264.7" y="257.3" style="&st3;" width="9.8" height="9.8"/>
<rect x="264.7" y="247.5" style="&st3;" width="9.8" height="9.8"/>
<rect x="264.7" y="237.6" style="&st3;" width="9.8" height="9.8"/>
<rect x="264.7" y="227.8" style="&st3;" width="9.8" height="9.8"/>
<rect x="264.7" y="218" style="&st3;" width="9.8" height="9.8"/>
<rect x="264.7" y="208.2" style="&st3;" width="9.8" height="9.8"/>
<rect x="264.7" y="198.4" style="&st3;" width="9.8" height="9.8"/>
<rect x="264.7" y="188.6" style="&st3;" width="9.8" height="9.8"/>
<rect x="264.7" y="178.8" style="&st3;" width="9.8" height="9.8"/>
<rect x="264.7" y="169" style="&st3;" width="9.8" height="9.8"/>
<rect x="264.7" y="159.2" style="&st3;" width="9.8" height="9.8"/>
<rect x="264.7" y="149.4" style="&st3;" width="9.8" height="9.8"/>
<rect x="264.7" y="139.6" style="&st3;" width="9.8" height="9.8"/>
<rect x="264.7" y="129.8" style="&st3;" width="9.8" height="9.8"/>
<rect x="264.7" y="120" style="&st3;" width="9.8" height="9.8"/>
<rect x="264.7" y="110.2" style="&st3;" width="9.8" height="9.8"/>
<rect x="264.7" y="100.4" style="&st3;" width="9.8" height="9.8"/>
<rect x="264.7" y="90.6" style="&st3;" width="9.8" height="9.8"/>
<rect x="264.7" y="80.8" style="&st3;" width="9.8" height="9.8"/>
<rect x="264.7" y="71" style="&st3;" width="9.8" height="9.8"/>
<rect x="264.7" y="61.2" style="&st3;" width="9.8" height="9.8"/>
<rect x="264.7" y="51.4" style="&st3;" width="9.8" height="9.8"/>
<rect x="264.7" y="41.6" style="&st3;" width="9.8" height="9.8"/>
<rect x="264.7" y="31.8" style="&st3;" width="9.8" height="9.8"/>
<rect x="264.7" y="22" style="&st3;" width="9.8" height="9.8"/>
<rect x="254.9" y="443.5" style="&st0;" width="9.8" height="9.8"/>
<rect x="254.9" y="433.7" style="&st0;" width="9.8" height="9.8"/>
<rect x="254.9" y="423.9" style="&st2;" width="9.8" height="9.8"/>
<rect x="254.9" y="414.1" style="&st2;" width="9.8" height="9.8"/>
<rect x="254.9" y="404.3" style="&st2;" width="9.8" height="9.8"/>
<rect x="254.9" y="394.5" style="&st2;" width="9.8" height="9.8"/>
<rect x="254.9" y="384.7" style="&st2;" width="9.8" height="9.8"/>
<rect x="254.9" y="374.9" style="&st2;" width="9.8" height="9.8"/>
<rect x="254.9" y="365.1" style="&st2;" width="9.8" height="9.8"/>
<rect x="254.9" y="355.3" style="&st2;" width="9.8" height="9.8"/>
<rect x="254.9" y="345.5" style="&st2;" width="9.8" height="9.8"/>
<rect x="254.9" y="335.7" style="&st2;" width="9.8" height="9.8"/>
<rect x="254.9" y="325.9" style="&st3;" width="9.8" height="9.8"/>
<rect x="254.9" y="316.1" style="&st3;" width="9.8" height="9.8"/>
<rect x="254.9" y="306.3" style="&st3;" width="9.8" height="9.8"/>
<rect x="254.9" y="296.5" style="&st3;" width="9.8" height="9.8"/>
<rect x="254.9" y="286.7" style="&st3;" width="9.8" height="9.8"/>
<rect x="254.9" y="276.9" style="&st3;" width="9.8" height="9.8"/>
<rect x="254.9" y="267.1" style="&st3;" width="9.8" height="9.8"/>
<rect x="254.9" y="257.3" style="&st3;" width="9.8" height="9.8"/>
<rect x="254.9" y="247.5" style="&st3;" width="9.8" height="9.8"/>
<rect x="254.9" y="237.6" style="&st3;" width="9.8" height="9.8"/>
<rect x="254.9" y="227.8" style="&st3;" width="9.8" height="9.8"/>
<rect x="254.9" y="218" style="&st3;" width="9.8" height="9.8"/>
<rect x="254.9" y="208.2" style="&st3;" width="9.8" height="9.8"/>
<rect x="254.9" y="198.4" style="&st3;" width="9.8" height="9.8"/>
<rect x="254.9" y="188.6" style="&st3;" width="9.8" height="9.8"/>
<rect x="254.9" y="178.8" style="&st3;" width="9.8" height="9.8"/>
<rect x="254.9" y="169" style="&st3;" width="9.8" height="9.8"/>
<rect x="254.9" y="159.2" style="&st3;" width="9.8" height="9.8"/>
<rect x="254.9" y="149.4" style="&st3;" width="9.8" height="9.8"/>
<rect x="254.9" y="139.6" style="&st3;" width="9.8" height="9.8"/>
<rect x="254.9" y="129.8" style="&st3;" width="9.8" height="9.8"/>
<rect x="254.9" y="120" style="&st3;" width="9.8" height="9.8"/>
<rect x="254.9" y="110.2" style="&st3;" width="9.8" height="9.8"/>
<rect x="254.9" y="100.4" style="&st3;" width="9.8" height="9.8"/>
<rect x="254.9" y="90.6" style="&st3;" width="9.8" height="9.8"/>
<rect x="254.9" y="80.8" style="&st3;" width="9.8" height="9.8"/>
<rect x="254.9" y="71" style="&st3;" width="9.8" height="9.8"/>
<rect x="254.9" y="61.2" style="&st3;" width="9.8" height="9.8"/>
<rect x="254.9" y="51.4" style="&st3;" width="9.8" height="9.8"/>
<rect x="254.9" y="41.6" style="&st3;" width="9.8" height="9.8"/>
<rect x="254.9" y="31.8" style="&st3;" width="9.8" height="9.8"/>
<rect x="254.9" y="22" style="&st3;" width="9.8" height="9.8"/>
<rect x="254.9" y="12.2" style="&st3;" width="9.8" height="9.8"/>
<rect x="245.1" y="453.3" style="&st0;" width="9.8" height="9.8"/>
<rect x="245.1" y="443.5" style="&st1;" width="9.8" height="9.8"/>
<rect x="245.1" y="433.7" style="&st1;" width="9.8" height="9.8"/>
<rect x="245.1" y="423.9" style="&st0;" width="9.8" height="9.8"/>
<rect x="245.1" y="414.1" style="&st2;" width="9.8" height="9.8"/>
<rect x="245.1" y="404.3" style="&st2;" width="9.8" height="9.8"/>
<rect x="245.1" y="394.5" style="&st2;" width="9.8" height="9.8"/>
<rect x="245.1" y="384.7" style="&st2;" width="9.8" height="9.8"/>
<rect x="245.1" y="374.9" style="&st2;" width="9.8" height="9.8"/>
<rect x="245.1" y="365.1" style="&st2;" width="9.8" height="9.8"/>
<rect x="245.1" y="355.3" style="&st2;" width="9.8" height="9.8"/>
<rect x="245.1" y="345.5" style="&st2;" width="9.8" height="9.8"/>
<rect x="245.1" y="335.7" style="&st3;" width="9.8" height="9.8"/>
<rect x="245.1" y="325.9" style="&st3;" width="9.8" height="9.8"/>
<rect x="245.1" y="316.1" style="&st3;" width="9.8" height="9.8"/>
<rect x="245.1" y="306.3" style="&st3;" width="9.8" height="9.8"/>
<rect x="245.1" y="296.5" style="&st3;" width="9.8" height="9.8"/>
<rect x="245.1" y="286.7" style="&st3;" width="9.8" height="9.8"/>
<rect x="245.1" y="276.9" style="&st3;" width="9.8" height="9.8"/>
<rect x="245.1" y="267.1" style="&st3;" width="9.8" height="9.8"/>
<rect x="245.1" y="257.3" style="&st3;" width="9.8" height="9.8"/>
<rect x="245.1" y="247.5" style="&st3;" width="9.8" height="9.8"/>
<rect x="245.1" y="237.6" style="&st3;" width="9.8" height="9.8"/>
<rect x="245.1" y="227.8" style="&st3;" width="9.8" height="9.8"/>
<rect x="245.1" y="218" style="&st3;" width="9.8" height="9.8"/>
<rect x="245.1" y="208.2" style="&st3;" width="9.8" height="9.8"/>
<rect x="245.1" y="198.4" style="&st3;" width="9.8" height="9.8"/>
<rect x="245.1" y="188.6" style="&st3;" width="9.8" height="9.8"/>
<rect x="245.1" y="178.8" style="&st3;" width="9.8" height="9.8"/>
<rect x="245.1" y="169" style="&st3;" width="9.8" height="9.8"/>
<rect x="245.1" y="159.2" style="&st3;" width="9.8" height="9.8"/>
<rect x="245.1" y="149.4" style="&st3;" width="9.8" height="9.8"/>
<rect x="245.1" y="139.6" style="&st3;" width="9.8" height="9.8"/>
<rect x="245.1" y="129.8" style="&st3;" width="9.8" height="9.8"/>
<rect x="245.1" y="120" style="&st3;" width="9.8" height="9.8"/>
<rect x="245.1" y="110.2" style="&st3;" width="9.8" height="9.8"/>
<rect x="245.1" y="100.4" style="&st3;" width="9.8" height="9.8"/>
<rect x="245.1" y="90.6" style="&st3;" width="9.8" height="9.8"/>
<rect x="245.1" y="80.8" style="&st3;" width="9.8" height="9.8"/>
<rect x="245.1" y="71" style="&st3;" width="9.8" height="9.8"/>
<rect x="245.1" y="61.2" style="&st3;" width="9.8" height="9.8"/>
<rect x="245.1" y="51.4" style="&st3;" width="9.8" height="9.8"/>
<rect x="245.1" y="41.6" style="&st3;" width="9.8" height="9.8"/>
<rect x="245.1" y="31.8" style="&st3;" width="9.8" height="9.8"/>
<rect x="245.1" y="22" style="&st3;" width="9.8" height="9.8"/>
<rect x="245.1" y="12.2" style="&st3;" width="9.8" height="9.8"/>
<rect x="245.1" y="2.4" style="&st3;" width="9.8" height="9.8"/>
<rect x="235.3" y="463.1" style="&st0;" width="9.8" height="9.8"/>
<rect x="235.3" y="453.3" style="&st1;" width="9.8" height="9.8"/>
<rect x="235.3" y="443.5" style="&st1;" width="9.8" height="9.8"/>
<rect x="235.3" y="433.7" style="&st1;" width="9.8" height="9.8"/>
<rect x="235.3" y="423.9" style="&st1;" width="9.8" height="9.8"/>
<rect x="235.3" y="414.1" style="&st0;" width="9.8" height="9.8"/>
<rect x="235.3" y="404.3" style="&st2;" width="9.8" height="9.8"/>
<rect x="235.3" y="394.5" style="&st2;" width="9.8" height="9.8"/>
<rect x="235.3" y="384.7" style="&st2;" width="9.8" height="9.8"/>
<rect x="235.3" y="374.9" style="&st2;" width="9.8" height="9.8"/>
<rect x="235.3" y="365.1" style="&st2;" width="9.8" height="9.8"/>
<rect x="235.3" y="355.3" style="&st2;" width="9.8" height="9.8"/>
<rect x="235.3" y="345.5" style="&st2;" width="9.8" height="9.8"/>
<rect x="235.3" y="335.7" style="&st3;" width="9.8" height="9.8"/>
<rect x="235.3" y="325.9" style="&st3;" width="9.8" height="9.8"/>
<rect x="235.3" y="316.1" style="&st3;" width="9.8" height="9.8"/>
<rect x="235.3" y="306.3" style="&st3;" width="9.8" height="9.8"/>
<rect x="235.3" y="296.5" style="&st3;" width="9.8" height="9.8"/>
<rect x="235.3" y="286.7" style="&st3;" width="9.8" height="9.8"/>
<rect x="235.3" y="276.9" style="&st3;" width="9.8" height="9.8"/>
<rect x="235.3" y="267.1" style="&st3;" width="9.8" height="9.8"/>
<rect x="235.3" y="257.3" style="&st3;" width="9.8" height="9.8"/>
<rect x="235.3" y="247.5" style="&st3;" width="9.8" height="9.8"/>
<rect x="235.3" y="237.6" style="&st3;" width="9.8" height="9.8"/>
<rect x="235.3" y="227.8" style="&st3;" width="9.8" height="9.8"/>
<rect x="235.3" y="218" style="&st3;" width="9.8" height="9.8"/>
<rect x="235.3" y="208.2" style="&st3;" width="9.8" height="9.8"/>
<rect x="235.3" y="198.4" style="&st3;" width="9.8" height="9.8"/>
<rect x="235.3" y="188.6" style="&st3;" width="9.8" height="9.8"/>
<rect x="235.3" y="178.8" style="&st3;" width="9.8" height="9.8"/>
<rect x="235.3" y="169" style="&st3;" width="9.8" height="9.8"/>
<rect x="235.3" y="159.2" style="&st3;" width="9.8" height="9.8"/>
<rect x="235.3" y="149.4" style="&st3;" width="9.8" height="9.8"/>
<rect x="235.3" y="139.6" style="&st3;" width="9.8" height="9.8"/>
<rect x="235.3" y="129.8" style="&st3;" width="9.8" height="9.8"/>
<rect x="235.3" y="120" style="&st3;" width="9.8" height="9.8"/>
<rect x="235.3" y="110.2" style="&st3;" width="9.8" height="9.8"/>
<rect x="235.3" y="100.4" style="&st3;" width="9.8" height="9.8"/>
<rect x="235.3" y="90.6" style="&st3;" width="9.8" height="9.8"/>
<rect x="235.3" y="80.8" style="&st3;" width="9.8" height="9.8"/>
<rect x="235.3" y="71" style="&st3;" width="9.8" height="9.8"/>
<rect x="235.3" y="61.2" style="&st3;" width="9.8" height="9.8"/>
<rect x="235.3" y="51.4" style="&st3;" width="9.8" height="9.8"/>
<rect x="235.3" y="41.6" style="&st3;" width="9.8" height="9.8"/>
<rect x="235.3" y="31.8" style="&st3;" width="9.8" height="9.8"/>
<rect x="235.3" y="22" style="&st3;" width="9.8" height="9.8"/>
<rect x="235.3" y="12.2" style="&st3;" width="9.8" height="9.8"/>
<rect x="235.3" y="2.4" style="&st3;" width="9.8" height="9.8"/>
<rect x="235.3" y="-7.5" style="&st3;" width="9.8" height="9.8"/>
<rect x="225.5" y="453.3" style="&st0;" width="9.8" height="9.8"/>
<rect x="225.5" y="443.5" style="&st1;" width="9.8" height="9.8"/>
<rect x="225.5" y="433.7" style="&st1;" width="9.8" height="9.8"/>
<rect x="225.5" y="423.9" style="&st0;" width="9.8" height="9.8"/>
<rect x="225.5" y="414.1" style="&st2;" width="9.8" height="9.8"/>
<rect x="225.5" y="404.3" style="&st2;" width="9.8" height="9.8"/>
<rect x="225.5" y="394.5" style="&st2;" width="9.8" height="9.8"/>
<rect x="225.5" y="384.7" style="&st2;" width="9.8" height="9.8"/>
<rect x="225.5" y="374.9" style="&st2;" width="9.8" height="9.8"/>
<rect x="225.5" y="365.1" style="&st2;" width="9.8" height="9.8"/>
<rect x="225.5" y="355.3" style="&st2;" width="9.8" height="9.8"/>
<rect x="225.5" y="345.5" style="&st2;" width="9.8" height="9.8"/>
<rect x="225.5" y="335.7" style="&st3;" width="9.8" height="9.8"/>
<rect x="225.5" y="325.9" style="&st3;" width="9.8" height="9.8"/>
<rect x="225.5" y="316.1" style="&st3;" width="9.8" height="9.8"/>
<rect x="225.5" y="306.3" style="&st3;" width="9.8" height="9.8"/>
<rect x="225.5" y="296.5" style="&st3;" width="9.8" height="9.8"/>
<rect x="225.5" y="286.7" style="&st3;" width="9.8" height="9.8"/>
<rect x="225.5" y="276.9" style="&st3;" width="9.8" height="9.8"/>
<rect x="225.5" y="267.1" style="&st3;" width="9.8" height="9.8"/>
<rect x="225.5" y="257.3" style="&st3;" width="9.8" height="9.8"/>
<rect x="225.5" y="247.5" style="&st3;" width="9.8" height="9.8"/>
<rect x="225.5" y="237.6" style="&st3;" width="9.8" height="9.8"/>
<rect x="225.5" y="227.8" style="&st3;" width="9.8" height="9.8"/>
<rect x="225.5" y="218" style="&st3;" width="9.8" height="9.8"/>
<rect x="225.5" y="208.2" style="&st3;" width="9.8" height="9.8"/>
<rect x="225.5" y="198.4" style="&st3;" width="9.8" height="9.8"/>
<rect x="225.5" y="188.6" style="&st3;" width="9.8" height="9.8"/>
<rect x="225.5" y="178.8" style="&st3;" width="9.8" height="9.8"/>
<rect x="225.5" y="169" style="&st3;" width="9.8" height="9.8"/>
<rect x="225.5" y="159.2" style="&st3;" width="9.8" height="9.8"/>
<rect x="225.5" y="149.4" style="&st3;" width="9.8" height="9.8"/>
<rect x="225.5" y="139.6" style="&st3;" width="9.8" height="9.8"/>
<rect x="225.5" y="129.8" style="&st3;" width="9.8" height="9.8"/>
<rect x="225.5" y="120" style="&st3;" width="9.8" height="9.8"/>
<rect x="225.5" y="110.2" style="&st3;" width="9.8" height="9.8"/>
<rect x="225.5" y="100.4" style="&st3;" width="9.8" height="9.8"/>
<rect x="225.5" y="90.6" style="&st3;" width="9.8" height="9.8"/>
<rect x="225.5" y="80.8" style="&st3;" width="9.8" height="9.8"/>
<rect x="225.5" y="71" style="&st3;" width="9.8" height="9.8"/>
<rect x="225.5" y="61.2" style="&st3;" width="9.8" height="9.8"/>
<rect x="225.5" y="51.4" style="&st3;" width="9.8" height="9.8"/>
<rect x="225.5" y="41.6" style="&st3;" width="9.8" height="9.8"/>
<rect x="225.5" y="31.8" style="&st3;" width="9.8" height="9.8"/>
<rect x="225.5" y="22" style="&st3;" width="9.8" height="9.8"/>
<rect x="225.5" y="12.2" style="&st3;" width="9.8" height="9.8"/>
<rect x="225.5" y="2.4" style="&st3;" width="9.8" height="9.8"/>
<rect x="215.7" y="443.5" style="&st0;" width="9.8" height="9.8"/>
<rect x="215.7" y="433.7" style="&st0;" width="9.8" height="9.8"/>
<rect x="215.7" y="423.9" style="&st2;" width="9.8" height="9.8"/>
<rect x="215.7" y="414.1" style="&st2;" width="9.8" height="9.8"/>
<rect x="215.7" y="404.3" style="&st2;" width="9.8" height="9.8"/>
<rect x="215.7" y="394.5" style="&st2;" width="9.8" height="9.8"/>
<rect x="215.7" y="384.7" style="&st2;" width="9.8" height="9.8"/>
<rect x="215.7" y="374.9" style="&st2;" width="9.8" height="9.8"/>
<rect x="215.7" y="365.1" style="&st2;" width="9.8" height="9.8"/>
<rect x="215.7" y="355.3" style="&st2;" width="9.8" height="9.8"/>
<rect x="215.7" y="345.5" style="&st2;" width="9.8" height="9.8"/>
<rect x="215.7" y="335.7" style="&st2;" width="9.8" height="9.8"/>
<rect x="215.7" y="325.9" style="&st3;" width="9.8" height="9.8"/>
<rect x="215.7" y="316.1" style="&st3;" width="9.8" height="9.8"/>
<rect x="215.7" y="306.3" style="&st3;" width="9.8" height="9.8"/>
<rect x="215.7" y="296.5" style="&st3;" width="9.8" height="9.8"/>
<rect x="215.7" y="286.7" style="&st3;" width="9.8" height="9.8"/>
<rect x="215.7" y="276.9" style="&st3;" width="9.8" height="9.8"/>
<rect x="215.7" y="267.1" style="&st3;" width="9.8" height="9.8"/>
<rect x="215.7" y="257.3" style="&st3;" width="9.8" height="9.8"/>
<rect x="215.7" y="247.5" style="&st3;" width="9.8" height="9.8"/>
<rect x="215.7" y="237.6" style="&st3;" width="9.8" height="9.8"/>
<rect x="215.7" y="227.8" style="&st3;" width="9.8" height="9.8"/>
<rect x="215.7" y="218" style="&st3;" width="9.8" height="9.8"/>
<rect x="215.7" y="208.2" style="&st3;" width="9.8" height="9.8"/>
<rect x="215.7" y="198.4" style="&st3;" width="9.8" height="9.8"/>
<rect x="215.7" y="188.6" style="&st3;" width="9.8" height="9.8"/>
<rect x="215.7" y="178.8" style="&st3;" width="9.8" height="9.8"/>
<rect x="215.7" y="169" style="&st3;" width="9.8" height="9.8"/>
<rect x="215.7" y="159.2" style="&st3;" width="9.8" height="9.8"/>
<rect x="215.7" y="149.4" style="&st3;" width="9.8" height="9.8"/>
<rect x="215.7" y="139.6" style="&st3;" width="9.8" height="9.8"/>
<rect x="215.7" y="129.8" style="&st3;" width="9.8" height="9.8"/>
<rect x="215.7" y="120" style="&st3;" width="9.8" height="9.8"/>
<rect x="215.7" y="110.2" style="&st3;" width="9.8" height="9.8"/>
<rect x="215.7" y="100.4" style="&st3;" width="9.8" height="9.8"/>
<rect x="215.7" y="90.6" style="&st3;" width="9.8" height="9.8"/>
<rect x="215.7" y="80.8" style="&st3;" width="9.8" height="9.8"/>
<rect x="215.7" y="71" style="&st3;" width="9.8" height="9.8"/>
<rect x="215.7" y="61.2" style="&st3;" width="9.8" height="9.8"/>
<rect x="215.7" y="51.4" style="&st3;" width="9.8" height="9.8"/>
<rect x="215.7" y="41.6" style="&st3;" width="9.8" height="9.8"/>
<rect x="215.7" y="31.8" style="&st3;" width="9.8" height="9.8"/>
<rect x="215.7" y="22" style="&st3;" width="9.8" height="9.8"/>
<rect x="215.7" y="12.2" style="&st3;" width="9.8" height="9.8"/>
<rect x="205.9" y="365.1" style="&st2;" width="9.8" height="9.8"/>
<rect x="205.9" y="355.3" style="&st2;" width="9.8" height="9.8"/>
<rect x="205.9" y="345.5" style="&st2;" width="9.8" height="9.8"/>
<rect x="205.9" y="335.7" style="&st2;" width="9.8" height="9.8"/>
<rect x="205.9" y="325.9" style="&st3;" width="9.8" height="9.8"/>
<rect x="205.9" y="316.1" style="&st3;" width="9.8" height="9.8"/>
<rect x="205.9" y="306.3" style="&st3;" width="9.8" height="9.8"/>
<rect x="205.9" y="296.5" style="&st3;" width="9.8" height="9.8"/>
<rect x="205.9" y="286.7" style="&st3;" width="9.8" height="9.8"/>
<rect x="205.9" y="276.9" style="&st3;" width="9.8" height="9.8"/>
<rect x="205.9" y="267.1" style="&st3;" width="9.8" height="9.8"/>
<rect x="205.9" y="257.3" style="&st3;" width="9.8" height="9.8"/>
<rect x="205.9" y="247.5" style="&st3;" width="9.8" height="9.8"/>
<rect x="205.9" y="237.6" style="&st3;" width="9.8" height="9.8"/>
<rect x="205.9" y="227.8" style="&st3;" width="9.8" height="9.8"/>
<rect x="205.9" y="218" style="&st3;" width="9.8" height="9.8"/>
<rect x="205.9" y="208.2" style="&st3;" width="9.8" height="9.8"/>
<rect x="205.9" y="198.4" style="&st3;" width="9.8" height="9.8"/>
<rect x="205.9" y="188.6" style="&st3;" width="9.8" height="9.8"/>
<rect x="205.9" y="178.8" style="&st3;" width="9.8" height="9.8"/>
<rect x="205.9" y="169" style="&st3;" width="9.8" height="9.8"/>
<rect x="205.9" y="159.2" style="&st3;" width="9.8" height="9.8"/>
<rect x="205.9" y="149.4" style="&st3;" width="9.8" height="9.8"/>
<rect x="205.9" y="139.6" style="&st3;" width="9.8" height="9.8"/>
<rect x="205.9" y="129.8" style="&st3;" width="9.8" height="9.8"/>
<rect x="205.9" y="120" style="&st3;" width="9.8" height="9.8"/>
<rect x="205.9" y="110.2" style="&st3;" width="9.8" height="9.8"/>
<rect x="205.9" y="100.4" style="&st3;" width="9.8" height="9.8"/>
<rect x="205.9" y="90.6" style="&st3;" width="9.8" height="9.8"/>
<rect x="205.9" y="80.8" style="&st3;" width="9.8" height="9.8"/>
<rect x="205.9" y="71" style="&st3;" width="9.8" height="9.8"/>
<rect x="205.9" y="61.2" style="&st3;" width="9.8" height="9.8"/>
<rect x="205.9" y="51.4" style="&st3;" width="9.8" height="9.8"/>
<rect x="205.9" y="41.6" style="&st3;" width="9.8" height="9.8"/>
<rect x="205.9" y="31.8" style="&st3;" width="9.8" height="9.8"/>
<rect x="205.9" y="22" style="&st3;" width="9.8" height="9.8"/>
<rect x="196.1" y="355.3" style="&st2;" width="9.8" height="9.8"/>
<rect x="196.1" y="345.5" style="&st2;" width="9.8" height="9.8"/>
<rect x="196.1" y="335.7" style="&st2;" width="9.8" height="9.8"/>
<rect x="196.1" y="325.9" style="&st3;" width="9.8" height="9.8"/>
<rect x="196.1" y="316.1" style="&st3;" width="9.8" height="9.8"/>
<rect x="196.1" y="306.3" style="&st3;" width="9.8" height="9.8"/>
<rect x="196.1" y="296.5" style="&st3;" width="9.8" height="9.8"/>
<rect x="196.1" y="286.7" style="&st3;" width="9.8" height="9.8"/>
<rect x="196.1" y="276.9" style="&st3;" width="9.8" height="9.8"/>
<rect x="196.1" y="267.1" style="&st3;" width="9.8" height="9.8"/>
<rect x="196.1" y="257.3" style="&st3;" width="9.8" height="9.8"/>
<rect x="196.1" y="247.5" style="&st3;" width="9.8" height="9.8"/>
<rect x="196.1" y="237.6" style="&st3;" width="9.8" height="9.8"/>
<rect x="196.1" y="227.8" style="&st3;" width="9.8" height="9.8"/>
<rect x="196.1" y="218" style="&st3;" width="9.8" height="9.8"/>
<rect x="196.1" y="208.2" style="&st3;" width="9.8" height="9.8"/>
<rect x="196.1" y="198.4" style="&st3;" width="9.8" height="9.8"/>
<rect x="196.1" y="188.6" style="&st3;" width="9.8" height="9.8"/>
<rect x="196.1" y="178.8" style="&st3;" width="9.8" height="9.8"/>
<rect x="196.1" y="169" style="&st3;" width="9.8" height="9.8"/>
<rect x="196.1" y="159.2" style="&st3;" width="9.8" height="9.8"/>
<rect x="196.1" y="149.4" style="&st3;" width="9.8" height="9.8"/>
<rect x="196.1" y="139.6" style="&st3;" width="9.8" height="9.8"/>
<rect x="196.1" y="129.8" style="&st3;" width="9.8" height="9.8"/>
<rect x="196.1" y="120" style="&st3;" width="9.8" height="9.8"/>
<rect x="196.1" y="110.2" style="&st3;" width="9.8" height="9.8"/>
<rect x="196.1" y="100.4" style="&st3;" width="9.8" height="9.8"/>
<rect x="196.1" y="90.6" style="&st3;" width="9.8" height="9.8"/>
<rect x="196.1" y="80.8" style="&st3;" width="9.8" height="9.8"/>
<rect x="196.1" y="71" style="&st3;" width="9.8" height="9.8"/>
<rect x="196.1" y="61.2" style="&st3;" width="9.8" height="9.8"/>
<rect x="196.1" y="51.4" style="&st3;" width="9.8" height="9.8"/>
<rect x="196.1" y="41.6" style="&st3;" width="9.8" height="9.8"/>
<rect x="196.1" y="31.8" style="&st3;" width="9.8" height="9.8"/>
<rect x="186.3" y="345.5" style="&st2;" width="9.8" height="9.8"/>
<rect x="186.3" y="335.7" style="&st2;" width="9.8" height="9.8"/>
<rect x="186.3" y="325.9" style="&st2;" width="9.8" height="9.8"/>
<rect x="186.3" y="316.1" style="&st3;" width="9.8" height="9.8"/>
<rect x="186.3" y="306.3" style="&st3;" width="9.8" height="9.8"/>
<rect x="186.3" y="296.5" style="&st3;" width="9.8" height="9.8"/>
<rect x="186.3" y="286.7" style="&st3;" width="9.8" height="9.8"/>
<rect x="186.3" y="276.9" style="&st3;" width="9.8" height="9.8"/>
<rect x="186.3" y="267.1" style="&st3;" width="9.8" height="9.8"/>
<rect x="186.3" y="257.3" style="&st3;" width="9.8" height="9.8"/>
<rect x="186.3" y="247.5" style="&st3;" width="9.8" height="9.8"/>
<rect x="186.3" y="237.6" style="&st3;" width="9.8" height="9.8"/>
<rect x="186.3" y="227.8" style="&st3;" width="9.8" height="9.8"/>
<rect x="186.3" y="218" style="&st3;" width="9.8" height="9.8"/>
<rect x="186.3" y="208.2" style="&st3;" width="9.8" height="9.8"/>
<rect x="186.3" y="198.4" style="&st3;" width="9.8" height="9.8"/>
<rect x="186.3" y="188.6" style="&st3;" width="9.8" height="9.8"/>
<rect x="186.3" y="178.8" style="&st3;" width="9.8" height="9.8"/>
<rect x="186.3" y="169" style="&st3;" width="9.8" height="9.8"/>
<rect x="186.3" y="159.2" style="&st3;" width="9.8" height="9.8"/>
<rect x="186.3" y="149.4" style="&st3;" width="9.8" height="9.8"/>
<rect x="186.3" y="139.6" style="&st3;" width="9.8" height="9.8"/>
<rect x="186.3" y="129.8" style="&st3;" width="9.8" height="9.8"/>
<rect x="186.3" y="120" style="&st3;" width="9.8" height="9.8"/>
<rect x="186.3" y="110.2" style="&st3;" width="9.8" height="9.8"/>
<rect x="186.3" y="100.4" style="&st3;" width="9.8" height="9.8"/>
<rect x="186.3" y="90.6" style="&st3;" width="9.8" height="9.8"/>
<rect x="186.3" y="80.8" style="&st3;" width="9.8" height="9.8"/>
<rect x="186.3" y="71" style="&st3;" width="9.8" height="9.8"/>
<rect x="186.3" y="61.2" style="&st3;" width="9.8" height="9.8"/>
<rect x="186.3" y="51.4" style="&st3;" width="9.8" height="9.8"/>
<rect x="186.3" y="41.6" style="&st3;" width="9.8" height="9.8"/>
<rect x="176.5" y="345.5" style="&st2;" width="9.8" height="9.8"/>
<rect x="176.5" y="335.7" style="&st2;" width="9.8" height="9.8"/>
<rect x="176.5" y="325.9" style="&st2;" width="9.8" height="9.8"/>
<rect x="176.5" y="316.1" style="&st2;" width="9.8" height="9.8"/>
<rect x="176.5" y="306.3" style="&st3;" width="9.8" height="9.8"/>
<rect x="176.5" y="296.5" style="&st3;" width="9.8" height="9.8"/>
<rect x="176.5" y="286.7" style="&st3;" width="9.8" height="9.8"/>
<rect x="176.5" y="276.9" style="&st3;" width="9.8" height="9.8"/>
<rect x="176.5" y="267.1" style="&st3;" width="9.8" height="9.8"/>
<rect x="176.5" y="257.3" style="&st3;" width="9.8" height="9.8"/>
<rect x="176.5" y="247.5" style="&st3;" width="9.8" height="9.8"/>
<rect x="176.5" y="237.6" style="&st3;" width="9.8" height="9.8"/>
<rect x="176.5" y="227.8" style="&st3;" width="9.8" height="9.8"/>
<rect x="176.5" y="218" style="&st3;" width="9.8" height="9.8"/>
<rect x="176.5" y="208.2" style="&st3;" width="9.8" height="9.8"/>
<rect x="176.5" y="198.4" style="&st3;" width="9.8" height="9.8"/>
<rect x="176.5" y="188.6" style="&st3;" width="9.8" height="9.8"/>
<rect x="176.5" y="178.8" style="&st3;" width="9.8" height="9.8"/>
<rect x="176.5" y="169" style="&st3;" width="9.8" height="9.8"/>
<rect x="176.5" y="159.2" style="&st3;" width="9.8" height="9.8"/>
<rect x="176.5" y="149.4" style="&st3;" width="9.8" height="9.8"/>
<rect x="176.5" y="139.6" style="&st3;" width="9.8" height="9.8"/>
<rect x="176.5" y="129.8" style="&st3;" width="9.8" height="9.8"/>
<rect x="176.5" y="120" style="&st3;" width="9.8" height="9.8"/>
<rect x="176.5" y="110.2" style="&st3;" width="9.8" height="9.8"/>
<rect x="176.5" y="100.4" style="&st3;" width="9.8" height="9.8"/>
<rect x="176.5" y="90.6" style="&st3;" width="9.8" height="9.8"/>
<rect x="176.5" y="80.8" style="&st3;" width="9.8" height="9.8"/>
<rect x="176.5" y="71" style="&st3;" width="9.8" height="9.8"/>
<rect x="176.5" y="61.2" style="&st3;" width="9.8" height="9.8"/>
<rect x="176.5" y="51.4" style="&st3;" width="9.8" height="9.8"/>
<rect x="166.7" y="335.7" style="&st2;" width="9.8" height="9.8"/>
<rect x="166.7" y="325.9" style="&st2;" width="9.8" height="9.8"/>
<rect x="166.7" y="316.1" style="&st2;" width="9.8" height="9.8"/>
<rect x="166.7" y="306.3" style="&st2;" width="9.8" height="9.8"/>
<rect x="156.9" y="325.9" style="&st2;" width="9.8" height="9.8"/>
<rect x="156.9" y="316.1" style="&st2;" width="9.8" height="9.8"/>
<rect x="156.9" y="306.3" style="&st2;" width="9.8" height="9.8"/>
<rect x="147.1" y="316.1" style="&st2;" width="9.8" height="9.8"/>
<rect x="147.1" y="306.3" style="&st2;" width="9.8" height="9.8"/>
<rect x="137.3" y="316.1" style="&st2;" width="9.8" height="9.8"/>
<rect x="137.3" y="306.3" style="&st2;" width="9.8" height="9.8"/>
<rect x="127.4" y="316.1" style="&st2;" width="9.8" height="9.8"/>
<rect x="127.4" y="306.3" style="&st2;" width="9.8" height="9.8"/>
<rect x="117.7" y="316.1" style="&st2;" width="9.8" height="9.8"/>
<rect x="117.7" y="306.3" style="&st0;" width="9.8" height="9.8"/>
<rect x="117.7" y="296.5" style="&st0;" width="9.8" height="9.8"/>
<rect x="107.8" y="316.1" style="&st0;" width="9.8" height="9.8"/>
<rect x="107.8" y="306.3" style="&st1;" width="9.8" height="9.8"/>
<rect x="107.8" y="296.5" style="&st1;" width="9.8" height="9.8"/>
<rect x="107.8" y="286.7" style="&st0;" width="9.8" height="9.8"/>
<rect x="98" y="316.1" style="&st0;" width="9.8" height="9.8"/>
<rect x="98" y="306.3" style="&st1;" width="9.8" height="9.8"/>
<rect x="98" y="296.5" style="&st1;" width="9.8" height="9.8"/>
<rect x="98" y="286.7" style="&st0;" width="9.8" height="9.8"/>
<rect x="88.2" y="306.3" style="&st0;" width="9.8" height="9.8"/>
<rect x="88.2" y="296.5" style="&st0;" width="9.8" height="9.8"/>
</svg>
