<?xml version="1.0" encoding="utf-8"?>
<!-- Generator: Adobe Illustrator 22.1.0, SVG Export Plug-In . SVG Version: 6.00 Build 0)  -->
<!DOCTYPE svg PUBLIC "-//W3C//DTD SVG 1.1//EN" "http://www.w3.org/Graphics/SVG/1.1/DTD/svg11.dtd" [
	<!ENTITY st0 "fill:#4D4D4D;">
	<!ENTITY st1 "fill:#93278F;">
	<!ENTITY st2 "fill:#662D91;">
	<!ENTITY st3 "fill:#808080;">
	<!ENTITY st4 "fill:#FFFF00;">
	<!ENTITY st5 "fill:#CCCCCC;">
	<!ENTITY st6 "fill:#D9E021;">
]>
<svg version="1.1" id="Layer_1" xmlns="http://www.w3.org/2000/svg" xmlns:xlink="http://www.w3.org/1999/xlink" x="0px" y="0px"
	 viewBox="0 0 500 500" style="enable-background:new 0 0 500 500;" xml:space="preserve">
<g id="XMLID_1_">
	<g>
		<rect x="354.1" y="210.9" style="&st0;" width="9.8" height="9.8"/>
		<rect x="354.1" y="201.1" style="&st0;" width="9.8" height="9.8"/>
		<rect x="354.1" y="191.3" style="&st0;" width="9.8" height="9.8"/>
		<rect x="344.2" y="240.3" style="&st0;" width="9.8" height="9.8"/>
		<rect x="344.2" y="230.5" style="&st0;" width="9.8" height="9.8"/>
		<rect x="344.2" y="220.7" style="&st0;" width="9.8" height="9.8"/>
		<rect x="344.2" y="210.9" style="&st1;" width="9.8" height="9.8"/>
		<rect x="344.2" y="201.1" style="&st1;" width="9.8" height="9.8"/>
		<rect x="344.2" y="191.3" style="&st0;" width="9.8" height="9.8"/>
		<rect x="334.4" y="259.9" style="&st0;" width="9.8" height="9.8"/>
		<rect x="334.4" y="250.1" style="&st0;" width="9.8" height="9.8"/>
		<rect x="334.4" y="240.3" style="&st1;" width="9.8" height="9.8"/>
		<rect x="334.4" y="230.5" style="&st1;" width="9.8" height="9.8"/>
		<rect x="334.4" y="220.7" style="&st1;" width="9.8" height="9.8"/>
		<rect x="334.4" y="210.9" style="&st1;" width="9.8" height="9.8"/>
		<rect x="334.4" y="201.1" style="&st1;" width="9.8" height="9.8"/>
		<rect x="334.4" y="191.3" style="&st0;" width="9.8" height="9.8"/>
		<rect x="324.6" y="279.5" style="&st0;" width="9.8" height="9.8"/>
		<rect x="324.6" y="269.7" style="&st0;" width="9.8" height="9.8"/>
		<rect x="324.6" y="259.9" style="&st1;" width="9.8" height="9.8"/>
		<rect x="324.6" y="250.1" style="&st1;" width="9.8" height="9.8"/>
		<rect x="324.6" y="240.3" style="&st1;" width="9.8" height="9.8"/>
		<rect x="324.6" y="230.5" style="&st1;" width="9.8" height="9.8"/>
		<rect x="324.6" y="220.7" style="&st1;" width="9.8" height="9.8"/>
		<rect x="324.6" y="210.9" style="&st1;" width="9.8" height="9.8"/>
		<rect x="324.6" y="201.1" style="&st1;" width="9.8" height="9.8"/>
		<rect x="324.6" y="191.3" style="&st0;" width="9.8" height="9.8"/>
		<rect x="314.8" y="299.1" style="&st0;" width="9.8" height="9.8"/>
		<rect x="314.8" y="289.3" style="&st0;" width="9.8" height="9.8"/>
		<rect x="314.8" y="279.5" style="&st1;" width="9.8" height="9.8"/>
		<rect x="314.8" y="269.7" style="&st1;" width="9.8" height="9.8"/>
		<rect x="314.8" y="259.9" style="&st1;" width="9.8" height="9.8"/>
		<rect x="314.8" y="250.1" style="&st1;" width="9.8" height="9.8"/>
		<rect x="314.8" y="240.3" style="&st1;" width="9.8" height="9.8"/>
		<rect x="314.8" y="230.5" style="&st1;" width="9.8" height="9.8"/>
		<rect x="314.8" y="220.7" style="&st1;" width="9.8" height="9.8"/>
		<rect x="314.8" y="210.9" style="&st1;" width="9.8" height="9.8"/>
		<rect x="314.8" y="201.1" style="&st1;" width="9.8" height="9.8"/>
		<rect x="314.8" y="191.3" style="&st0;" width="9.8" height="9.8"/>
		<rect x="305" y="308.9" style="&st0;" width="9.8" height="9.8"/>
		<rect x="305" y="299.1" style="&st2;" width="9.8" height="9.8"/>
		<rect x="305" y="289.3" style="&st0;" width="9.8" height="9.8"/>
		<rect x="305" y="279.5" style="&st1;" width="9.8" height="9.8"/>
		<rect x="305" y="269.7" style="&st1;" width="9.8" height="9.8"/>
		<rect x="305" y="259.9" style="&st1;" width="9.8" height="9.8"/>
		<rect x="305" y="250.1" style="&st1;" width="9.8" height="9.8"/>
		<rect x="305" y="240.3" style="&st1;" width="9.8" height="9.8"/>
		<rect x="305" y="230.5" style="&st1;" width="9.8" height="9.8"/>
		<rect x="305" y="220.7" style="&st1;" width="9.8" height="9.8"/>
		<rect x="305" y="210.9" style="&st1;" width="9.8" height="9.8"/>
		<rect x="305" y="201.1" style="&st1;" width="9.8" height="9.8"/>
		<rect x="305" y="191.3" style="&st0;" width="9.8" height="9.8"/>
		<rect x="295.2" y="328.5" style="&st0;" width="9.8" height="9.8"/>
		<rect x="295.2" y="318.7" style="&st0;" width="9.8" height="9.8"/>
		<rect x="295.2" y="308.9" style="&st2;" width="9.8" height="9.8"/>
		<rect x="295.2" y="299.1" style="&st2;" width="9.8" height="9.8"/>
		<rect x="295.2" y="289.3" style="&st0;" width="9.8" height="9.8"/>
		<rect x="295.2" y="279.5" style="&st1;" width="9.8" height="9.8"/>
		<rect x="295.2" y="269.7" style="&st1;" width="9.8" height="9.8"/>
		<rect x="295.2" y="259.9" style="&st1;" width="9.8" height="9.8"/>
		<rect x="295.2" y="250.1" style="&st1;" width="9.8" height="9.8"/>
		<rect x="295.2" y="240.3" style="&st1;" width="9.8" height="9.8"/>
		<rect x="295.2" y="230.5" style="&st1;" width="9.8" height="9.8"/>
		<rect x="295.2" y="220.7" style="&st1;" width="9.8" height="9.8"/>
		<rect x="295.2" y="210.9" style="&st1;" width="9.8" height="9.8"/>
		<rect x="295.2" y="201.1" style="&st1;" width="9.8" height="9.8"/>
		<rect x="295.2" y="191.3" style="&st0;" width="9.8" height="9.8"/>
		<rect x="295.2" y="181.5" style="&st3;" width="9.8" height="9.8"/>
		<rect x="285.4" y="338.3" style="&st0;" width="9.8" height="9.8"/>
		<rect x="285.4" y="328.5" style="&st2;" width="9.8" height="9.8"/>
		<rect x="285.4" y="318.7" style="&st2;" width="9.8" height="9.8"/>
		<rect x="285.4" y="308.9" style="&st2;" width="9.8" height="9.8"/>
		<rect x="285.4" y="299.1" style="&st2;" width="9.8" height="9.8"/>
		<rect x="285.4" y="289.3" style="&st0;" width="9.8" height="9.8"/>
		<rect x="285.4" y="279.5" style="&st1;" width="9.8" height="9.8"/>
		<rect x="285.4" y="269.7" style="&st1;" width="9.8" height="9.8"/>
		<rect x="285.4" y="259.9" style="&st1;" width="9.8" height="9.8"/>
		<rect x="285.4" y="250.1" style="&st1;" width="9.8" height="9.8"/>
		<rect x="285.4" y="240.3" style="&st1;" width="9.8" height="9.8"/>
		<rect x="285.4" y="230.5" style="&st1;" width="9.8" height="9.8"/>
		<rect x="285.4" y="220.7" style="&st1;" width="9.8" height="9.8"/>
		<rect x="285.4" y="210.9" style="&st1;" width="9.8" height="9.8"/>
		<rect x="285.4" y="201.1" style="&st1;" width="9.8" height="9.8"/>
		<rect x="285.4" y="191.3" style="&st0;" width="9.8" height="9.8"/>
		<rect x="285.4" y="181.5" style="&st3;" width="9.8" height="9.8"/>
		<rect x="275.6" y="348.1" style="&st0;" width="9.8" height="9.8"/>
		<rect x="275.6" y="338.3" style="&st2;" width="9.8" height="9.8"/>
		<rect x="275.6" y="328.5" style="&st2;" width="9.8" height="9.8"/>
		<rect x="275.6" y="318.7" style="&st2;" width="9.8" height="9.8"/>
		<rect x="275.6" y="308.9" style="&st2;" width="9.8" height="9.8"/>
		<rect x="275.6" y="299.1" style="&st2;" width="9.8" height="9.8"/>
		<rect x="275.6" y="289.3" style="&st0;" width="9.8" height="9.8"/>
		<rect x="275.6" y="279.5" style="&st1;" width="9.8" height="9.8"/>
		<rect x="275.6" y="269.7" style="&st1;" width="9.8" height="9.8"/>
		<rect x="275.6" y="259.9" style="&st1;" width="9.8" height="9.8"/>
		<rect x="275.6" y="250.1" style="&st1;" width="9.8" height="9.8"/>
		<rect x="275.6" y="240.3" style="&st1;" width="9.8" height="9.8"/>
		<rect x="275.6" y="230.5" style="&st1;" width="9.8" height="9.8"/>
		<rect x="275.6" y="220.7" style="&st1;" width="9.8" height="9.8"/>
		<rect x="275.6" y="210.9" style="&st1;" width="9.8" height="9.8"/>
		<rect x="275.6" y="201.1" style="&st1;" width="9.8" height="9.8"/>
		<rect x="275.6" y="191.3" style="&st0;" width="9.8" height="9.8"/>
		<rect x="275.6" y="181.5" style="&st3;" width="9.8" height="9.8"/>
		<rect x="265.8" y="357.9" style="&st0;" width="9.8" height="9.8"/>
		<rect x="265.8" y="348.1" style="&st2;" width="9.8" height="9.8"/>
		<rect x="265.8" y="338.3" style="&st2;" width="9.8" height="9.8"/>
		<rect x="265.8" y="328.5" style="&st2;" width="9.8" height="9.8"/>
		<rect x="265.8" y="318.7" style="&st2;" width="9.8" height="9.8"/>
		<rect x="265.8" y="308.9" style="&st2;" width="9.8" height="9.8"/>
		<rect x="265.8" y="299.1" style="&st2;" width="9.8" height="9.8"/>
		<rect x="265.8" y="289.3" style="&st0;" width="9.8" height="9.8"/>
		<rect x="265.8" y="279.5" style="&st1;" width="9.8" height="9.8"/>
		<rect x="265.8" y="269.7" style="&st1;" width="9.8" height="9.8"/>
		<rect x="265.8" y="259.9" style="&st1;" width="9.8" height="9.8"/>
		<rect x="265.8" y="250.1" style="&st1;" width="9.8" height="9.8"/>
		<rect x="265.8" y="240.3" style="&st1;" width="9.8" height="9.8"/>
		<rect x="265.8" y="230.5" style="&st1;" width="9.8" height="9.8"/>
		<rect x="265.8" y="220.7" style="&st1;" width="9.8" height="9.8"/>
		<rect x="265.8" y="210.9" style="&st1;" width="9.8" height="9.8"/>
		<rect x="265.8" y="201.1" style="&st1;" width="9.8" height="9.8"/>
		<rect x="265.8" y="191.3" style="&st0;" width="9.8" height="9.8"/>
		<rect x="265.8" y="181.5" style="&st3;" width="9.8" height="9.8"/>
		<rect x="256" y="367.7" style="&st0;" width="9.8" height="9.8"/>
		<rect x="256" y="357.9" style="&st2;" width="9.8" height="9.8"/>
		<rect x="256" y="348.1" style="&st2;" width="9.8" height="9.8"/>
		<rect x="256" y="338.3" style="&st2;" width="9.8" height="9.8"/>
		<rect x="256" y="328.5" style="&st2;" width="9.8" height="9.8"/>
		<rect x="256" y="318.7" style="&st2;" width="9.8" height="9.8"/>
		<rect x="256" y="308.9" style="&st2;" width="9.8" height="9.8"/>
		<rect x="256" y="299.1" style="&st2;" width="9.8" height="9.8"/>
		<rect x="256" y="289.3" style="&st0;" width="9.8" height="9.8"/>
		<rect x="256" y="279.5" style="&st1;" width="9.8" height="9.8"/>
		<rect x="256" y="269.7" style="&st1;" width="9.8" height="9.8"/>
		<rect x="256" y="259.9" style="&st1;" width="9.8" height="9.8"/>
		<rect x="256" y="250.1" style="&st1;" width="9.8" height="9.8"/>
		<rect x="256" y="240.3" style="&st1;" width="9.8" height="9.8"/>
		<rect x="256" y="230.5" style="&st1;" width="9.8" height="9.8"/>
		<rect x="256" y="220.7" style="&st1;" width="9.8" height="9.8"/>
		<rect x="256" y="210.9" style="&st1;" width="9.8" height="9.8"/>
		<rect x="256" y="201.1" style="&st1;" width="9.8" height="9.8"/>
		<rect x="256" y="191.3" style="&st0;" width="9.8" height="9.8"/>
		<rect x="256" y="181.5" style="&st3;" width="9.8" height="9.8"/>
		<rect x="256" y="171.7" style="&st3;" width="9.8" height="9.8"/>
		<rect x="256" y="132.5" style="&st4;" width="9.8" height="9.8"/>
		<rect x="256" y="122.7" style="&st4;" width="9.8" height="9.8"/>
		<rect x="246.2" y="407" style="&st5;" width="9.8" height="9.8"/>
		<rect x="246.2" y="397.2" style="&st5;" width="9.8" height="9.8"/>
		<rect x="246.2" y="387.4" style="&st5;" width="9.8" height="9.8"/>
		<rect x="246.2" y="377.6" style="&st5;" width="9.8" height="9.8"/>
		<rect x="246.2" y="367.7" style="&st0;" width="9.8" height="9.8"/>
		<rect x="246.2" y="357.9" style="&st2;" width="9.8" height="9.8"/>
		<rect x="246.2" y="348.1" style="&st2;" width="9.8" height="9.8"/>
		<rect x="246.2" y="338.3" style="&st2;" width="9.8" height="9.8"/>
		<rect x="246.2" y="328.5" style="&st2;" width="9.8" height="9.8"/>
		<rect x="246.2" y="318.7" style="&st2;" width="9.8" height="9.8"/>
		<rect x="246.2" y="308.9" style="&st2;" width="9.8" height="9.8"/>
		<rect x="246.2" y="299.1" style="&st2;" width="9.8" height="9.8"/>
		<rect x="246.2" y="289.3" style="&st0;" width="9.8" height="9.8"/>
		<rect x="246.2" y="279.5" style="&st1;" width="9.8" height="9.8"/>
		<rect x="246.2" y="269.7" style="&st1;" width="9.8" height="9.8"/>
		<rect x="246.2" y="259.9" style="&st1;" width="9.8" height="9.8"/>
		<rect x="246.2" y="250.1" style="&st1;" width="9.8" height="9.8"/>
		<rect x="246.2" y="240.3" style="&st1;" width="9.8" height="9.8"/>
		<rect x="246.2" y="230.5" style="&st1;" width="9.8" height="9.8"/>
		<rect x="246.2" y="220.7" style="&st1;" width="9.8" height="9.8"/>
		<rect x="246.2" y="210.9" style="&st1;" width="9.8" height="9.8"/>
		<rect x="246.2" y="201.1" style="&st1;" width="9.8" height="9.8"/>
		<rect x="246.2" y="191.3" style="&st0;" width="9.8" height="9.8"/>
		<rect x="246.2" y="181.5" style="&st3;" width="9.8" height="9.8"/>
		<rect x="246.2" y="171.7" style="&st3;" width="9.8" height="9.8"/>
		<rect x="246.2" y="161.9" style="&st3;" width="9.8" height="9.8"/>
		<rect x="246.2" y="152.1" style="&st3;" width="9.8" height="9.8"/>
		<rect x="246.2" y="142.3" style="&st4;" width="9.8" height="9.8"/>
		<rect x="246.2" y="132.5" style="&st6;" width="9.8" height="9.8"/>
		<rect x="246.2" y="122.7" style="&st6;" width="9.8" height="9.8"/>
		<rect x="246.2" y="112.8" style="&st4;" width="9.8" height="9.8"/>
		<rect x="236.4" y="426.6" style="&st5;" width="9.8" height="9.8"/>
		<rect x="236.4" y="416.8" style="&st5;" width="9.8" height="9.8"/>
		<rect x="236.4" y="407" style="&st5;" width="9.8" height="9.8"/>
		<rect x="236.4" y="397.2" style="&st5;" width="9.8" height="9.8"/>
		<rect x="236.4" y="387.4" style="&st5;" width="9.8" height="9.8"/>
		<rect x="236.4" y="377.6" style="&st5;" width="9.8" height="9.8"/>
		<rect x="236.4" y="367.7" style="&st0;" width="9.8" height="9.8"/>
		<rect x="236.4" y="357.9" style="&st0;" width="9.8" height="9.8"/>
		<rect x="236.4" y="348.1" style="&st0;" width="9.8" height="9.8"/>
		<rect x="236.4" y="338.3" style="&st0;" width="9.8" height="9.8"/>
		<rect x="236.4" y="328.5" style="&st0;" width="9.8" height="9.8"/>
		<rect x="236.4" y="318.7" style="&st0;" width="9.8" height="9.8"/>
		<rect x="236.4" y="308.9" style="&st0;" width="9.8" height="9.8"/>
		<rect x="236.4" y="299.1" style="&st0;" width="9.8" height="9.8"/>
		<rect x="236.4" y="289.3" style="&st0;" width="9.8" height="9.8"/>
		<rect x="236.4" y="279.5" style="&st0;" width="9.8" height="9.8"/>
		<rect x="236.4" y="269.7" style="&st0;" width="9.8" height="9.8"/>
		<rect x="236.4" y="259.9" style="&st0;" width="9.8" height="9.8"/>
		<rect x="236.4" y="250.1" style="&st0;" width="9.8" height="9.8"/>
		<rect x="236.4" y="240.3" style="&st0;" width="9.8" height="9.8"/>
		<rect x="236.4" y="230.5" style="&st0;" width="9.8" height="9.8"/>
		<rect x="236.4" y="220.7" style="&st0;" width="9.8" height="9.8"/>
		<rect x="236.4" y="210.9" style="&st0;" width="9.8" height="9.8"/>
		<rect x="236.4" y="201.1" style="&st0;" width="9.8" height="9.8"/>
		<rect x="236.4" y="191.3" style="&st0;" width="9.8" height="9.8"/>
		<rect x="236.4" y="181.5" style="&st3;" width="9.8" height="9.8"/>
		<rect x="236.4" y="171.7" style="&st3;" width="9.8" height="9.8"/>
		<rect x="236.4" y="161.9" style="&st3;" width="9.8" height="9.8"/>
		<rect x="236.4" y="152.1" style="&st3;" width="9.8" height="9.8"/>
		<rect x="236.4" y="142.3" style="&st4;" width="9.8" height="9.8"/>
		<rect x="236.4" y="132.5" style="&st6;" width="9.8" height="9.8"/>
		<rect x="236.4" y="122.7" style="&st6;" width="9.8" height="9.8"/>
		<rect x="236.4" y="112.8" style="&st4;" width="9.8" height="9.8"/>
		<rect x="226.6" y="407" style="&st5;" width="9.8" height="9.8"/>
		<rect x="226.6" y="397.2" style="&st5;" width="9.8" height="9.8"/>
		<rect x="226.6" y="387.4" style="&st5;" width="9.8" height="9.8"/>
		<rect x="226.6" y="377.6" style="&st5;" width="9.8" height="9.8"/>
		<rect x="226.6" y="367.7" style="&st0;" width="9.8" height="9.8"/>
		<rect x="226.6" y="357.9" style="&st1;" width="9.8" height="9.8"/>
		<rect x="226.6" y="348.1" style="&st1;" width="9.8" height="9.8"/>
		<rect x="226.6" y="338.3" style="&st1;" width="9.8" height="9.8"/>
		<rect x="226.6" y="328.5" style="&st1;" width="9.8" height="9.8"/>
		<rect x="226.6" y="318.7" style="&st1;" width="9.8" height="9.8"/>
		<rect x="226.6" y="308.9" style="&st1;" width="9.8" height="9.8"/>
		<rect x="226.6" y="299.1" style="&st1;" width="9.8" height="9.8"/>
		<rect x="226.6" y="289.3" style="&st0;" width="9.8" height="9.8"/>
		<rect x="226.6" y="279.5" style="&st2;" width="9.8" height="9.8"/>
		<rect x="226.6" y="269.7" style="&st2;" width="9.8" height="9.8"/>
		<rect x="226.6" y="259.9" style="&st2;" width="9.8" height="9.8"/>
		<rect x="226.6" y="250.1" style="&st2;" width="9.8" height="9.8"/>
		<rect x="226.6" y="240.3" style="&st2;" width="9.8" height="9.8"/>
		<rect x="226.6" y="230.5" style="&st2;" width="9.8" height="9.8"/>
		<rect x="226.6" y="220.7" style="&st2;" width="9.8" height="9.8"/>
		<rect x="226.6" y="210.9" style="&st2;" width="9.8" height="9.8"/>
		<rect x="226.6" y="201.1" style="&st2;" width="9.8" height="9.8"/>
		<rect x="226.6" y="191.3" style="&st0;" width="9.8" height="9.8"/>
		<rect x="226.6" y="181.5" style="&st3;" width="9.8" height="9.8"/>
		<rect x="226.6" y="171.7" style="&st3;" width="9.8" height="9.8"/>
		<rect x="226.6" y="161.9" style="&st3;" width="9.8" height="9.8"/>
		<rect x="226.6" y="152.1" style="&st3;" width="9.8" height="9.8"/>
		<rect x="226.6" y="142.3" style="&st4;" width="9.8" height="9.8"/>
		<rect x="226.6" y="132.5" style="&st6;" width="9.8" height="9.8"/>
		<rect x="226.6" y="122.7" style="&st6;" width="9.8" height="9.8"/>
		<rect x="226.6" y="112.8" style="&st4;" width="9.8" height="9.8"/>
		<rect x="216.8" y="367.7" style="&st0;" width="9.8" height="9.8"/>
		<rect x="216.8" y="357.9" style="&st1;" width="9.8" height="9.8"/>
		<rect x="216.8" y="348.1" style="&st1;" width="9.8" height="9.8"/>
		<rect x="216.8" y="338.3" style="&st1;" width="9.8" height="9.8"/>
		<rect x="216.8" y="328.5" style="&st1;" width="9.8" height="9.8"/>
		<rect x="216.8" y="318.7" style="&st1;" width="9.8" height="9.8"/>
		<rect x="216.8" y="308.9" style="&st1;" width="9.8" height="9.8"/>
		<rect x="216.8" y="299.1" style="&st1;" width="9.8" height="9.8"/>
		<rect x="216.8" y="289.3" style="&st0;" width="9.8" height="9.8"/>
		<rect x="216.8" y="279.5" style="&st2;" width="9.8" height="9.8"/>
		<rect x="216.8" y="269.7" style="&st2;" width="9.8" height="9.8"/>
		<rect x="216.8" y="259.9" style="&st2;" width="9.8" height="9.8"/>
		<rect x="216.8" y="250.1" style="&st2;" width="9.8" height="9.8"/>
		<rect x="216.8" y="240.3" style="&st2;" width="9.8" height="9.8"/>
		<rect x="216.8" y="230.5" style="&st2;" width="9.8" height="9.8"/>
		<rect x="216.8" y="220.7" style="&st2;" width="9.8" height="9.8"/>
		<rect x="216.8" y="210.9" style="&st2;" width="9.8" height="9.8"/>
		<rect x="216.8" y="201.1" style="&st2;" width="9.8" height="9.8"/>
		<rect x="216.8" y="191.3" style="&st0;" width="9.8" height="9.8"/>
		<rect x="216.8" y="181.5" style="&st3;" width="9.8" height="9.8"/>
		<rect x="216.8" y="171.7" style="&st3;" width="9.8" height="9.8"/>
		<rect x="216.8" y="132.5" style="&st4;" width="9.8" height="9.8"/>
		<rect x="216.8" y="122.7" style="&st4;" width="9.8" height="9.8"/>
		<rect x="207" y="357.9" style="&st0;" width="9.8" height="9.8"/>
		<rect x="207" y="348.1" style="&st1;" width="9.8" height="9.8"/>
		<rect x="207" y="338.3" style="&st1;" width="9.8" height="9.8"/>
		<rect x="207" y="328.5" style="&st1;" width="9.8" height="9.8"/>
		<rect x="207" y="318.7" style="&st1;" width="9.8" height="9.8"/>
		<rect x="207" y="308.9" style="&st1;" width="9.8" height="9.8"/>
		<rect x="207" y="299.1" style="&st1;" width="9.8" height="9.8"/>
		<rect x="207" y="289.3" style="&st0;" width="9.8" height="9.8"/>
		<rect x="207" y="279.5" style="&st2;" width="9.8" height="9.8"/>
		<rect x="207" y="269.7" style="&st2;" width="9.8" height="9.8"/>
		<rect x="207" y="259.9" style="&st2;" width="9.8" height="9.8"/>
		<rect x="207" y="250.1" style="&st2;" width="9.8" height="9.8"/>
		<rect x="207" y="240.3" style="&st2;" width="9.8" height="9.8"/>
		<rect x="207" y="230.5" style="&st2;" width="9.8" height="9.8"/>
		<rect x="207" y="220.7" style="&st2;" width="9.8" height="9.8"/>
		<rect x="207" y="210.9" style="&st2;" width="9.8" height="9.8"/>
		<rect x="207" y="201.1" style="&st2;" width="9.8" height="9.8"/>
		<rect x="207" y="191.3" style="&st0;" width="9.8" height="9.8"/>
		<rect x="207" y="181.5" style="&st3;" width="9.8" height="9.8"/>
		<rect x="197.2" y="348.1" style="&st0;" width="9.8" height="9.8"/>
		<rect x="197.2" y="338.3" style="&st1;" width="9.8" height="9.8"/>
		<rect x="197.2" y="328.5" style="&st1;" width="9.8" height="9.8"/>
		<rect x="197.2" y="318.7" style="&st1;" width="9.8" height="9.8"/>
		<rect x="197.2" y="308.9" style="&st1;" width="9.8" height="9.8"/>
		<rect x="197.2" y="299.1" style="&st1;" width="9.8" height="9.8"/>
		<rect x="197.2" y="289.3" style="&st0;" width="9.8" height="9.8"/>
		<rect x="197.2" y="279.5" style="&st2;" width="9.8" height="9.8"/>
		<rect x="197.2" y="269.7" style="&st2;" width="9.8" height="9.8"/>
		<rect x="197.2" y="259.9" style="&st2;" width="9.8" height="9.8"/>
		<rect x="197.2" y="250.1" style="&st2;" width="9.8" height="9.8"/>
		<rect x="197.2" y="240.3" style="&st2;" width="9.8" height="9.8"/>
		<rect x="197.2" y="230.5" style="&st2;" width="9.8" height="9.8"/>
		<rect x="197.2" y="220.7" style="&st2;" width="9.8" height="9.8"/>
		<rect x="197.2" y="210.9" style="&st2;" width="9.8" height="9.8"/>
		<rect x="197.2" y="201.1" style="&st2;" width="9.8" height="9.8"/>
		<rect x="197.2" y="191.3" style="&st0;" width="9.8" height="9.8"/>
		<rect x="197.2" y="181.5" style="&st3;" width="9.8" height="9.8"/>
		<rect x="187.4" y="338.3" style="&st0;" width="9.8" height="9.8"/>
		<rect x="187.4" y="328.5" style="&st1;" width="9.8" height="9.8"/>
		<rect x="187.4" y="318.7" style="&st1;" width="9.8" height="9.8"/>
		<rect x="187.4" y="308.9" style="&st1;" width="9.8" height="9.8"/>
		<rect x="187.4" y="299.1" style="&st1;" width="9.8" height="9.8"/>
		<rect x="187.4" y="289.3" style="&st0;" width="9.8" height="9.8"/>
		<rect x="187.4" y="279.5" style="&st2;" width="9.8" height="9.8"/>
		<rect x="187.4" y="269.7" style="&st2;" width="9.8" height="9.8"/>
		<rect x="187.4" y="259.9" style="&st2;" width="9.8" height="9.8"/>
		<rect x="187.4" y="250.1" style="&st2;" width="9.8" height="9.8"/>
		<rect x="187.4" y="240.3" style="&st2;" width="9.8" height="9.8"/>
		<rect x="187.4" y="230.5" style="&st2;" width="9.8" height="9.8"/>
		<rect x="187.4" y="220.7" style="&st2;" width="9.8" height="9.8"/>
		<rect x="187.4" y="210.9" style="&st2;" width="9.8" height="9.8"/>
		<rect x="187.4" y="201.1" style="&st2;" width="9.8" height="9.8"/>
		<rect x="187.4" y="191.3" style="&st0;" width="9.8" height="9.8"/>
		<rect x="187.4" y="181.5" style="&st3;" width="9.8" height="9.8"/>
		<rect x="177.6" y="328.5" style="&st0;" width="9.8" height="9.8"/>
		<rect x="177.6" y="318.7" style="&st0;" width="9.8" height="9.8"/>
		<rect x="177.6" y="308.9" style="&st1;" width="9.8" height="9.8"/>
		<rect x="177.6" y="299.1" style="&st1;" width="9.8" height="9.8"/>
		<rect x="177.6" y="289.3" style="&st0;" width="9.8" height="9.8"/>
		<rect x="177.6" y="279.5" style="&st2;" width="9.8" height="9.8"/>
		<rect x="177.6" y="269.7" style="&st2;" width="9.8" height="9.8"/>
		<rect x="177.6" y="259.9" style="&st2;" width="9.8" height="9.8"/>
		<rect x="177.6" y="250.1" style="&st2;" width="9.8" height="9.8"/>
		<rect x="177.6" y="240.3" style="&st2;" width="9.8" height="9.8"/>
		<rect x="177.6" y="230.5" style="&st2;" width="9.8" height="9.8"/>
		<rect x="177.6" y="220.7" style="&st2;" width="9.8" height="9.8"/>
		<rect x="177.6" y="210.9" style="&st2;" width="9.8" height="9.8"/>
		<rect x="177.6" y="201.1" style="&st2;" width="9.8" height="9.8"/>
		<rect x="177.6" y="191.3" style="&st0;" width="9.8" height="9.8"/>
		<rect x="177.6" y="181.5" style="&st3;" width="9.8" height="9.8"/>
		<rect x="167.8" y="308.9" style="&st0;" width="9.8" height="9.8"/>
		<rect x="167.8" y="299.1" style="&st1;" width="9.8" height="9.8"/>
		<rect x="167.8" y="289.3" style="&st0;" width="9.8" height="9.8"/>
		<rect x="167.8" y="279.5" style="&st2;" width="9.8" height="9.8"/>
		<rect x="167.8" y="269.7" style="&st2;" width="9.8" height="9.8"/>
		<rect x="167.8" y="259.9" style="&st2;" width="9.8" height="9.8"/>
		<rect x="167.8" y="250.1" style="&st2;" width="9.8" height="9.8"/>
		<rect x="167.8" y="240.3" style="&st2;" width="9.8" height="9.8"/>
		<rect x="167.8" y="230.5" style="&st2;" width="9.8" height="9.8"/>
		<rect x="167.8" y="220.7" style="&st2;" width="9.8" height="9.8"/>
		<rect x="167.8" y="210.9" style="&st2;" width="9.8" height="9.8"/>
		<rect x="167.8" y="201.1" style="&st2;" width="9.8" height="9.8"/>
		<rect x="167.8" y="191.3" style="&st0;" width="9.8" height="9.8"/>
		<rect x="158" y="299.1" style="&st0;" width="9.8" height="9.8"/>
		<rect x="158" y="289.3" style="&st0;" width="9.8" height="9.8"/>
		<rect x="158" y="279.5" style="&st2;" width="9.8" height="9.8"/>
		<rect x="158" y="269.7" style="&st2;" width="9.8" height="9.8"/>
		<rect x="158" y="259.9" style="&st2;" width="9.8" height="9.8"/>
		<rect x="158" y="250.1" style="&st2;" width="9.8" height="9.8"/>
		<rect x="158" y="240.3" style="&st2;" width="9.8" height="9.8"/>
		<rect x="158" y="230.5" style="&st2;" width="9.8" height="9.8"/>
		<rect x="158" y="220.7" style="&st2;" width="9.8" height="9.8"/>
		<rect x="158" y="210.9" style="&st2;" width="9.8" height="9.8"/>
		<rect x="158" y="201.1" style="&st2;" width="9.8" height="9.8"/>
		<rect x="158" y="191.3" style="&st0;" width="9.8" height="9.8"/>
		<rect x="148.2" y="279.5" style="&st0;" width="9.8" height="9.8"/>
		<rect x="148.2" y="269.7" style="&st0;" width="9.8" height="9.8"/>
		<rect x="148.2" y="259.9" style="&st2;" width="9.8" height="9.8"/>
		<rect x="148.2" y="250.1" style="&st2;" width="9.8" height="9.8"/>
		<rect x="148.2" y="240.3" style="&st2;" width="9.8" height="9.8"/>
		<rect x="148.2" y="230.5" style="&st2;" width="9.8" height="9.8"/>
		<rect x="148.2" y="220.7" style="&st2;" width="9.8" height="9.8"/>
		<rect x="148.2" y="210.9" style="&st2;" width="9.8" height="9.8"/>
		<rect x="148.2" y="201.1" style="&st2;" width="9.8" height="9.8"/>
		<rect x="148.2" y="191.3" style="&st0;" width="9.8" height="9.8"/>
		<rect x="138.4" y="259.9" style="&st0;" width="9.8" height="9.8"/>
		<rect x="138.4" y="250.1" style="&st0;" width="9.8" height="9.8"/>
		<rect x="138.4" y="240.3" style="&st2;" width="9.8" height="9.8"/>
		<rect x="138.4" y="230.5" style="&st2;" width="9.8" height="9.8"/>
		<rect x="138.4" y="220.7" style="&st2;" width="9.8" height="9.8"/>
		<rect x="138.4" y="210.9" style="&st2;" width="9.8" height="9.8"/>
		<rect x="138.4" y="201.1" style="&st2;" width="9.8" height="9.8"/>
		<rect x="138.4" y="191.3" style="&st0;" width="9.8" height="9.8"/>
		<rect x="128.6" y="240.3" style="&st0;" width="9.8" height="9.8"/>
		<rect x="128.6" y="230.5" style="&st0;" width="9.8" height="9.8"/>
		<rect x="128.6" y="220.7" style="&st0;" width="9.8" height="9.8"/>
		<rect x="128.6" y="210.9" style="&st2;" width="9.8" height="9.8"/>
		<rect x="128.6" y="201.1" style="&st2;" width="9.8" height="9.8"/>
		<rect x="128.6" y="191.3" style="&st0;" width="9.8" height="9.8"/>
		<rect x="118.7" y="210.9" style="&st0;" width="9.8" height="9.8"/>
		<rect x="118.7" y="201.1" style="&st0;" width="9.8" height="9.8"/>
		<rect x="118.7" y="191.3" style="&st0;" width="9.8" height="9.8"/>
	</g>
</g>
</svg>
